<svg width="834" height="200" viewBox="0 0 834 200" fill="none" xmlns="http://www.w3.org/2000/svg">
<g clip-path="url(#clip0)">
<path d="M100 200C155.228 200 200 155.228 200 100C200 44.7715 155.228 0 100 0C44.7715 0 0 44.7715 0 100C0 155.228 44.7715 200 100 200Z" fill="url(#paint0_linear)"/>
<path d="M80.4486 166.139C94.7675 157.872 101.07 142.003 101.86 126.532C102.613 111.787 88.0642 103.214 75.0799 96.1857C58.6695 87.303 47.4986 69.9353 47.4986 50.0007C47.4986 42.4098 49.1245 35.1927 52.0405 28.673C52.8937 26.7656 50.7489 24.6591 49.0278 25.8439C25.4588 42.0698 10 69.2223 10 100.001C10 126.483 18.7875 87.8876 39.012 151.62C42.7744 163.476 52.1578 173.855 64.4242 171.791C69.9513 170.86 75.4978 168.997 80.4486 166.139Z" fill="#1F1F1F"/>
<path d="M52.564 49.9849C52.5644 66.5192 63.1557 79.9111 76.159 88.3311C88.5522 96.356 103.251 88.0429 115.83 80.3123C131.728 70.5418 152.354 69.5513 169.618 79.5187C176.192 83.3141 181.629 88.3307 185.817 94.1159C187.043 95.8085 189.939 95.0044 189.774 92.9214C187.506 64.3971 171.721 37.4331 145.066 22.0439C122.131 8.80276 151.162 35.7106 85.8562 21.3594C73.7072 18.6896 60.0272 21.6264 55.6819 33.2817C53.7239 38.5333 52.5646 44.2686 52.564 49.9849Z" fill="#1F1F1F"/>
<path d="M167.086 83.9265C152.767 75.6597 135.873 78.136 122.08 85.1872C108.933 91.9076 108.783 108.794 109.189 123.553C109.701 142.206 100.246 160.564 82.9819 170.531C76.408 174.327 69.3448 176.527 62.2406 177.262C60.1621 177.477 59.4102 180.387 61.2969 181.285C87.1334 193.584 118.378 193.395 145.032 178.006C167.967 164.765 130.149 176.452 175.23 127.071C183.617 117.885 187.913 104.569 179.992 94.9782C176.423 90.6568 172.036 86.7852 167.086 83.9265Z" fill="#1F1F1F"/>
<path d="M300.6 120.8C300.6 123.12 299.76 125.12 298.08 126.8C296.48 128.4 294.52 129.2 292.2 129.2H258.6C256.28 129.2 254.28 128.4 252.6 126.8C251 125.12 250.2 123.12 250.2 120.8V78.8004C250.2 76.4804 251 74.5204 252.6 72.9204C254.28 71.2404 256.28 70.4004 258.6 70.4004H292.2C294.52 70.4004 296.48 71.2404 298.08 72.9204C299.76 74.5204 300.6 76.4804 300.6 78.8004V87.2004H291V78.8004H259.8V120.8H291V112.4H300.6V120.8Z" fill="url(#paint1_linear)" stroke="#6C6C6C" stroke-width="0.5"/>
<path d="M366.652 120.799C366.652 123.119 365.812 125.119 364.132 126.799C362.532 128.399 360.572 129.199 358.252 129.199H333.052C330.732 129.199 328.732 128.399 327.052 126.799C325.452 125.119 324.652 123.119 324.652 120.799V95.5992C324.652 93.2792 325.452 91.3192 327.052 89.7192C328.732 88.0392 330.732 87.1992 333.052 87.1992H358.252C360.572 87.1992 362.532 88.0392 364.132 89.7192C365.812 91.3192 366.652 93.2792 366.652 95.5992V120.799ZM358.252 121.999V94.3992H333.052V121.999H358.252Z" fill="url(#paint2_linear)" stroke="#6C6C6C" stroke-width="0.5"/>
<path d="M426.08 87.1992L418.76 94.3992H398.48V103.999H415.28C417.6 103.999 419.56 104.839 421.16 106.519C422.84 108.119 423.68 110.079 423.68 112.399V120.799C423.68 123.119 422.84 125.119 421.16 126.799C419.56 128.399 417.6 129.199 415.28 129.199H390.08V121.999H415.28V111.199H398.48C396.16 111.199 394.16 110.399 392.48 108.799C390.88 107.119 390.08 105.119 390.08 102.799V95.5992C390.08 93.2792 390.88 91.3192 392.48 89.7192C394.16 88.0392 396.16 87.1992 398.48 87.1992H426.08Z" fill="url(#paint3_linear)" stroke="#6C6C6C" stroke-width="0.5"/>
<path d="M517.837 129.199H509.437V94.3992H486.637V129.199H478.237V94.3992H455.437V129.199H447.037V87.1992H455.437V93.1992L461.437 87.1992H478.237C483.117 87.1992 485.877 89.2392 486.517 93.3192L492.637 87.1992H509.437C511.757 87.1992 513.717 88.0392 515.317 89.7192C516.997 91.3192 517.837 93.2792 517.837 95.5992V129.199Z" fill="url(#paint4_linear)" stroke="#6C6C6C" stroke-width="0.5"/>
<path d="M621.694 70.4004L608.494 129.2H592.294L580.894 86.1204H579.694L568.294 129.2H552.094L538.894 70.4004H549.694L559.294 121.04H561.694L575.494 70.4004H585.094L598.894 121.04H601.294L610.894 70.4004H621.694Z" fill="url(#paint5_linear)" stroke="#6C6C6C" stroke-width="0.5"/>
<path d="M682.866 129.199H674.466V123.079L667.266 129.199H649.266C646.946 129.199 644.946 128.399 643.266 126.799C641.666 125.119 640.866 123.119 640.866 120.799V112.399C640.866 110.079 641.666 108.119 643.266 106.519C644.946 104.839 646.946 103.999 649.266 103.999H673.266L666.066 111.079H649.266V121.999H674.466V94.3992H640.866L648.066 87.1992H674.466C676.786 87.1992 678.746 88.0392 680.346 89.7192C682.026 91.3192 682.866 93.2792 682.866 95.5992V129.199Z" fill="url(#paint6_linear)" stroke="#6C6C6C" stroke-width="0.5"/>
<path d="M742.219 87.1992L734.899 94.3992H714.619V103.999H731.419C733.739 103.999 735.699 104.839 737.299 106.519C738.979 108.119 739.819 110.079 739.819 112.399V120.799C739.819 123.119 738.979 125.119 737.299 126.799C735.699 128.399 733.739 129.199 731.419 129.199H706.219V121.999H731.419V111.199H714.619C712.299 111.199 710.299 110.399 708.619 108.799C707.019 107.119 706.219 105.119 706.219 102.799V95.5992C706.219 93.2792 707.019 91.3192 708.619 89.7192C710.299 88.0392 712.299 87.1992 714.619 87.1992H742.219Z" fill="url(#paint7_linear)" stroke="#6C6C6C" stroke-width="0.5"/>
<path d="M833.977 129.199H825.577V94.3992H802.777V129.199H794.377V94.3992H771.577V129.199H763.177V87.1992H771.577V93.1992L777.577 87.1992H794.377C799.257 87.1992 802.017 89.2392 802.657 93.3192L808.777 87.1992H825.577C827.897 87.1992 829.857 88.0392 831.457 89.7192C833.137 91.3192 833.977 93.2792 833.977 95.5992V129.199Z" fill="url(#paint8_linear)" stroke="#6C6C6C" stroke-width="0.5"/>
</g>
<defs>
<linearGradient id="paint0_linear" x1="37.2" y1="8.40039" x2="165.2" y2="190.8" gradientUnits="userSpaceOnUse">
<stop stop-color="#FCECB2"/>
<stop offset="0.260417" stop-color="#FF8B89"/>
<stop offset="0.520833" stop-color="#FC8ADC"/>
<stop offset="0.755208" stop-color="#7954FF"/>
<stop offset="1" stop-color="#70BCFF"/>
</linearGradient>
<linearGradient id="paint1_linear" x1="259.574" y1="72.8701" x2="298.804" y2="120.786" gradientUnits="userSpaceOnUse">
<stop offset="0.114583" stop-color="#FF8B89"/>
<stop offset="0.411458" stop-color="#FC8ADC"/>
<stop offset="0.6875" stop-color="#7954FF"/>
<stop offset="1" stop-color="#70BCFF"/>
</linearGradient>
<linearGradient id="paint2_linear" x1="332.464" y1="88.9633" x2="359.344" y2="127.267" gradientUnits="userSpaceOnUse">
<stop offset="0.114583" stop-color="#FF8B89"/>
<stop offset="0.411458" stop-color="#FC8ADC"/>
<stop offset="0.6875" stop-color="#7954FF"/>
<stop offset="1" stop-color="#70BCFF"/>
</linearGradient>
<linearGradient id="paint3_linear" x1="396.776" y1="88.9633" x2="424.797" y2="123.189" gradientUnits="userSpaceOnUse">
<stop offset="0.114583" stop-color="#FF8B89"/>
<stop offset="0.411458" stop-color="#FC8ADC"/>
<stop offset="0.6875" stop-color="#7954FF"/>
<stop offset="1" stop-color="#70BCFF"/>
</linearGradient>
<linearGradient id="paint4_linear" x1="460.206" y1="88.9633" x2="480.489" y2="137.687" gradientUnits="userSpaceOnUse">
<stop offset="0.114583" stop-color="#FF8B89"/>
<stop offset="0.411458" stop-color="#FC8ADC"/>
<stop offset="0.6875" stop-color="#7954FF"/>
<stop offset="1" stop-color="#70BCFF"/>
</linearGradient>
<linearGradient id="paint5_linear" x1="554.295" y1="72.8701" x2="586.245" y2="136.982" gradientUnits="userSpaceOnUse">
<stop offset="0.114583" stop-color="#FF8B89"/>
<stop offset="0.411458" stop-color="#FC8ADC"/>
<stop offset="0.6875" stop-color="#7954FF"/>
<stop offset="1" stop-color="#70BCFF"/>
</linearGradient>
<linearGradient id="paint6_linear" x1="648.678" y1="88.9633" x2="675.558" y2="127.267" gradientUnits="userSpaceOnUse">
<stop offset="0.114583" stop-color="#FF8B89"/>
<stop offset="0.411458" stop-color="#FC8ADC"/>
<stop offset="0.6875" stop-color="#7954FF"/>
<stop offset="1" stop-color="#70BCFF"/>
</linearGradient>
<linearGradient id="paint7_linear" x1="712.915" y1="88.9633" x2="740.936" y2="123.189" gradientUnits="userSpaceOnUse">
<stop offset="0.114583" stop-color="#FF8B89"/>
<stop offset="0.411458" stop-color="#FC8ADC"/>
<stop offset="0.6875" stop-color="#7954FF"/>
<stop offset="1" stop-color="#70BCFF"/>
</linearGradient>
<linearGradient id="paint8_linear" x1="776.346" y1="88.9633" x2="796.629" y2="137.687" gradientUnits="userSpaceOnUse">
<stop offset="0.114583" stop-color="#FF8B89"/>
<stop offset="0.411458" stop-color="#FC8ADC"/>
<stop offset="0.6875" stop-color="#7954FF"/>
<stop offset="1" stop-color="#70BCFF"/>
</linearGradient>
<clipPath id="clip0">
<rect width="834" height="200" fill="white"/>
</clipPath>
</defs>
</svg>
