<?xml version="1.0" encoding="utf-8"?>
<!-- Generator: Adobe Illustrator 23.0.3, SVG Export Plug-In . SVG Version: 6.00 Build 0)  -->
<svg version="1.1" id="Layer_1" xmlns="http://www.w3.org/2000/svg" xmlns:xlink="http://www.w3.org/1999/xlink" x="0px" y="0px"
	 width="128px" height="128px" viewBox="0 0 128 128" style="enable-background:new 0 0 128 128;" xml:space="preserve">
<style type="text/css">
	.st0{display:none;opacity:0.49;}
	.st1{display:inline;fill:#0CE8AE;}
	.st2{fill:#FFFFFF;}
	.st3{display:none;fill:#2845AE;}
	.st4{fill:#0E3CA5;}
	.st5{fill:#5493F7;}
</style>
<g class="st0">
	<circle class="st1" cx="64" cy="448" r="420"/>
</g>
<g>
	<g>
		<circle class="st2" cx="64" cy="64" r="64"/>
	</g>
	<g id="Symbol_x5F_terra">
		<g>
			<path class="st3" d="M31.81,19.23C13.62,43.27,83.6,60,108.37,55.96c4.35-0.71,17.58-2.87,8.53-20.18
				c-1.27-2.16-3.05-5.01-4.47-7.08c-1.72-2.16-4.12-4.96-6-6.99c-0.6-0.6-1.2-1.18-1.83-1.75c-4.83-4.22-14.89-13-40.66-13.3
				C48.7,6.98,37.88,11.21,31.81,19.23"/>
			<path class="st4" d="M55.61,97.29c3.29,12.16,15.08,21.44,21.04,21.06c0.21-0.01,22.6-4.19,34.85-24.66
				c9.54-15.93,6.29-31.32-6.68-31.65C100.15,62.37,49.34,74.11,55.61,97.29"/>
			<path class="st4" d="M103.61,19.16c0,0-0.01-0.01-0.01-0.01l0.02-0.01c-9.94-8.47-22.82-13.56-36.9-13.56
				c-8.23,0-16.04,1.76-23.1,4.91c-1.27,0.53-2.47,1.12-3.61,1.77c-0.8,0.43-1.6,0.85-2.37,1.31l0.19,0.06
				c-2.34,1.62-4.36,3.51-6.01,5.69c-16.34,21.59,38.43,37.28,67.7,37.33C112.99,66.3,116.77,29.4,103.61,19.16z"/>
			<path class="st3" d="M115.66,83.92c3.7-12.17-0.43-22.14-10.85-22.4c-4.67,0.34-55.47,12.08-49.21,35.25
				c3.29,12.16,15.08,21.44,21.04,21.06c0.19-0.01,17.82-3.31,30.36-18.35c5.22-3.41,9.21-6.04,9.27-6.14
				c1.31-2.31,2.46-4.72,3.46-7.21l0,0C119.36,85.73,117.86,84.94,115.66,83.92z"/>
		</g>
		<g>
			<path class="st5" d="M46.91,19.6c-7.52,11.31-32.58,19.28-36.7,18.04c-0.01-0.02-0.02-0.04-0.03-0.05
				c0.17-0.34,0.34-0.68,0.52-1.02c1.43-2.75,3.06-5.38,4.88-7.86s3.83-4.82,6-6.99s4.51-4.18,6.99-6c1.54-1.13,3.14-2.19,4.79-3.17
				c3.51-2.03,7.1-2.16,8.28-2.21C52.8,10.55,46.97,19.51,46.91,19.6"/>
			<path class="st5" d="M40.74,99.51c0.54,3.55-0.01,17.59-0.74,18.77c-0.63,0.04-1.93,0.12-5.71-2c-1.98-1.13-3.9-2.37-5.73-3.72
				c-2.48-1.82-4.82-3.83-6.99-6s-4.18-4.51-6-6.99s-3.45-5.11-4.88-7.86c-1.43-2.75-2.65-5.63-3.64-8.61
				c-0.99-2.98-1.76-6.07-2.27-9.23C4.27,70.7,4,67.45,4,64.13c0-3.31,0.27-6.56,0.79-9.73s1.28-6.25,2.27-9.23
				c0.2-0.6,0.41-1.2,0.63-1.8l0,0c4.33,5.75,9.33,10.96,13.59,16.77c4.05,5.53,9.63,14.55,10.76,16.48
				C39.08,88.58,40.2,95.96,40.74,99.51"/>
			<path class="st5" d="M124,64.13c0,7.78-1.48,15.22-4.18,22.04c-7.07,7.6-54.72-11.1-55.18-11.31
				c-6.52-2.86-26.35-11.54-28.14-25.2c-2.57-19.64,37.27-33.32,54.77-33.84c2.1,0.02,8.49,0.1,12.21,3.12
				C116.06,29.95,124,46.12,124,64.13"/>
			<path class="st5" d="M91.75,117.35c-5.19,2.42-10.91,0.66-9.43-4.4c2.85-9.71,27.76-19.67,33.26-20.21
				c0.68-0.07,0.97,0.4,0.67,0.92C110.51,103.71,102.02,111.99,91.75,117.35"/>
		</g>
	</g>
</g>
</svg>
