<svg width="181" height="48" viewBox="0 0 181 48" fill="none" xmlns="http://www.w3.org/2000/svg">
<path fill-rule="evenodd" clip-rule="evenodd" d="M23.9047 1.66277L4.56012 12.8314V35.1686L23.9047 46.3372L43.2493 35.1686V12.8314L23.9047 1.66277ZM44.6893 12L23.9047 0L3.12012 12V36L23.9047 48L44.6893 36V12Z" fill="black"/>
<path d="M57.4399 30H62.6239C65.1199 30 66.7679 28.928 66.7679 26.928V26.896C66.7679 25.376 65.8559 24.624 64.5439 24.176C65.3759 23.744 66.1439 23.024 66.1439 21.68V21.648C66.1439 20.912 65.8879 20.288 65.3919 19.792C64.7519 19.152 63.7439 18.8 62.4639 18.8H57.4399V30ZM64.1759 22C64.1759 23.024 63.3279 23.52 62.0639 23.52H59.3759V20.544H62.2079C63.4719 20.544 64.1759 21.088 64.1759 21.968V22ZM64.7999 26.688V26.72C64.7999 27.728 63.9679 28.256 62.6399 28.256H59.3759V25.184H62.4959C64.0479 25.184 64.7999 25.744 64.7999 26.688Z" fill="black"/>
<path d="M68.9868 30H70.9548V26.096H73.4188L76.1708 30H78.5068L75.4828 25.76C77.0348 25.312 78.1388 24.208 78.1388 22.368V22.336C78.1388 21.36 77.8028 20.528 77.2108 19.92C76.4908 19.216 75.3868 18.8 73.9788 18.8H68.9868V30ZM70.9548 24.352V20.592H73.8188C75.2748 20.592 76.1388 21.248 76.1388 22.448V22.48C76.1388 23.616 75.2428 24.352 73.8348 24.352H70.9548Z" fill="black"/>
<path d="M79.5893 30H81.6053L82.7573 27.296H88.0533L89.1893 30H91.2693L86.3413 18.72H84.5173L79.5893 30ZM83.4773 25.552L85.3973 21.072L87.3333 25.552H83.4773Z" fill="black"/>
<path d="M93.1899 30H95.1259V22.032L101.302 30H102.95V18.8H101.014V26.544L95.0139 18.8H93.1899V30Z" fill="black"/>
<path d="M105.831 30H110.007C113.527 30 115.959 27.552 115.959 24.4V24.368C115.959 21.216 113.527 18.8 110.007 18.8H105.831V30ZM110.007 20.592C112.359 20.592 113.895 22.208 113.895 24.4V24.432C113.895 26.624 112.359 28.208 110.007 28.208H107.799V20.592H110.007Z" fill="black"/>
<path d="M123.143 30H125.079V22.032L131.255 30H132.903V18.8H130.967V26.544L124.967 18.8H123.143V30Z" fill="black"/>
<path d="M134.824 30H136.84L137.992 27.296H143.288L144.424 30H146.504L141.576 18.72H139.752L134.824 30ZM138.712 25.552L140.632 21.072L142.568 25.552H138.712Z" fill="black"/>
<path d="M148.424 30H150.36V22L153.864 27.248H153.928L157.464 21.968V30H159.432V18.8H157.336L153.928 24.096L150.52 18.8H148.424V30Z" fill="black"/>
<path d="M162.315 30H170.699V28.24H164.283V25.248H169.899V23.472H164.283V20.56H170.619V18.8H162.315V30Z" fill="black"/>
</svg>
