<svg width="292" height="160" viewBox="0 0 292 160" fill="none" xmlns="http://www.w3.org/2000/svg">
<circle cx="146" cy="50" r="50" fill="url(#paint0_linear)"/>
<path d="M136.224 83.0696C143.384 78.9358 146.535 71.0017 146.93 63.2661C147.307 55.8935 140.032 51.6069 133.54 48.0928C125.335 43.6514 119.749 34.9676 119.749 25.0003C119.749 21.2048 120.562 17.5963 122.02 14.3365C122.447 13.3828 121.374 12.3295 120.514 12.9219C108.729 21.0349 101 34.6111 101 50.0003C101 63.2415 105.394 43.9438 115.506 75.81C117.387 81.7381 122.079 86.9275 128.212 85.8953C130.976 85.4302 133.749 84.4984 136.224 83.0696Z" fill="#1F1F1F"/>
<path d="M122.282 24.993C122.282 33.2601 127.578 39.9561 134.08 44.1661C140.276 48.1785 147.626 44.022 153.915 40.1566C161.864 35.2714 172.177 34.7762 180.809 39.7598C184.096 41.6576 186.815 44.1659 188.909 47.0585C189.521 47.9047 190.97 47.5027 190.887 46.4612C189.753 32.1991 181.86 18.7171 168.533 11.0225C157.066 4.40185 171.581 17.8558 138.928 10.6802C132.854 9.3453 126.014 10.8137 123.841 16.6414C122.862 19.2672 122.282 22.1348 122.282 24.993Z" fill="#1F1F1F"/>
<path d="M179.543 41.9628C172.383 37.8294 163.937 39.0676 157.04 42.5932C150.467 45.9533 150.392 54.3965 150.594 61.7759C150.851 71.1025 146.123 80.2815 137.491 85.2652C134.204 87.1629 130.672 88.2631 127.12 88.6304C126.081 88.7378 125.705 90.1932 126.648 90.6422C139.567 96.7914 155.189 96.6971 168.516 89.0026C179.983 82.3819 161.074 88.2257 183.615 63.5351C187.808 58.9419 189.957 52.2841 185.996 47.4887C184.212 45.3279 182.018 43.3921 179.543 41.9628Z" fill="#1F1F1F"/>
<path d="M25.2 155.4C25.2 156.56 24.78 157.56 23.94 158.4C23.14 159.2 22.16 159.6 21 159.6H4.2C3.04 159.6 2.04 159.2 1.2 158.4C0.4 157.56 0 156.56 0 155.4V134.4C0 133.24 0.4 132.26 1.2 131.46C2.04 130.62 3.04 130.2 4.2 130.2H21C22.16 130.2 23.14 130.62 23.94 131.46C24.78 132.26 25.2 133.24 25.2 134.4V138.6H20.4V134.4H4.8V155.4H20.4V151.2H25.2V155.4Z" fill="white"/>
<path d="M58.2258 155.4C58.2258 156.56 57.8058 157.56 56.9658 158.4C56.1658 159.2 55.1858 159.6 54.0258 159.6H41.4258C40.2658 159.6 39.2658 159.2 38.4258 158.4C37.6258 157.56 37.2258 156.56 37.2258 155.4V142.8C37.2258 141.64 37.6258 140.66 38.4258 139.86C39.2658 139.02 40.2658 138.6 41.4258 138.6H54.0258C55.1858 138.6 56.1658 139.02 56.9658 139.86C57.8058 140.66 58.2258 141.64 58.2258 142.8V155.4ZM54.0258 156V142.2H41.4258V156H54.0258Z" fill="white"/>
<path d="M87.9398 138.6L84.2798 142.2H74.1398V147H82.5398C83.6998 147 84.6798 147.42 85.4798 148.26C86.3198 149.06 86.7398 150.04 86.7398 151.2V155.4C86.7398 156.56 86.3198 157.56 85.4798 158.4C84.6798 159.2 83.6998 159.6 82.5398 159.6H69.9398V156H82.5398V150.6H74.1398C72.9798 150.6 71.9798 150.2 71.1398 149.4C70.3398 148.56 69.9398 147.56 69.9398 146.4V142.8C69.9398 141.64 70.3398 140.66 71.1398 139.86C71.9798 139.02 72.9798 138.6 74.1398 138.6H87.9398Z" fill="white"/>
<path d="M133.819 159.6H129.619V142.2H118.219V159.6H114.019V142.2H102.619V159.6H98.4188V138.6H102.619V141.6L105.619 138.6H114.019C116.459 138.6 117.839 139.62 118.159 141.66L121.219 138.6H129.619C130.779 138.6 131.759 139.02 132.559 139.86C133.399 140.66 133.819 141.64 133.819 142.8V159.6Z" fill="white"/>
<path d="M185.747 130.2L179.147 159.6H171.047L165.347 138.06H164.747L159.047 159.6H150.947L144.347 130.2H149.747L154.547 155.52H155.747L162.647 130.2H167.447L174.347 155.52H175.547L180.347 130.2H185.747Z" fill="white"/>
<path d="M216.333 159.6H212.133V156.54L208.533 159.6H199.533C198.373 159.6 197.373 159.2 196.533 158.4C195.733 157.56 195.333 156.56 195.333 155.4V151.2C195.333 150.04 195.733 149.06 196.533 148.26C197.373 147.42 198.373 147 199.533 147H211.533L207.933 150.54H199.533V156H212.133V142.2H195.333L198.933 138.6H212.133C213.293 138.6 214.273 139.02 215.073 139.86C215.913 140.66 216.333 141.64 216.333 142.8V159.6Z" fill="white"/>
<path d="M246.009 138.6L242.349 142.2H232.209V147H240.609C241.769 147 242.749 147.42 243.549 148.26C244.389 149.06 244.809 150.04 244.809 151.2V155.4C244.809 156.56 244.389 157.56 243.549 158.4C242.749 159.2 241.769 159.6 240.609 159.6H228.009V156H240.609V150.6H232.209C231.049 150.6 230.049 150.2 229.209 149.4C228.409 148.56 228.009 147.56 228.009 146.4V142.8C228.009 141.64 228.409 140.66 229.209 139.86C230.049 139.02 231.049 138.6 232.209 138.6H246.009Z" fill="white"/>
<path d="M291.888 159.6H287.688V142.2H276.288V159.6H272.088V142.2H260.688V159.6H256.488V138.6H260.688V141.6L263.688 138.6H272.088C274.528 138.6 275.908 139.62 276.228 141.66L279.288 138.6H287.688C288.848 138.6 289.828 139.02 290.628 139.86C291.468 140.66 291.888 141.64 291.888 142.8V159.6Z" fill="white"/>
<defs>
<linearGradient id="paint0_linear" x1="114.6" y1="4.2002" x2="178.6" y2="95.4002" gradientUnits="userSpaceOnUse">
<stop stop-color="#FCECB2"/>
<stop offset="0.260417" stop-color="#FF8B89"/>
<stop offset="0.520833" stop-color="#FC8ADC"/>
<stop offset="0.755208" stop-color="#7954FF"/>
<stop offset="1" stop-color="#70BCFF"/>
</linearGradient>
</defs>
</svg>
