<svg width="16" height="16" viewBox="0 0 16 16" fill="none" xmlns="http://www.w3.org/2000/svg">
<circle cx="8" cy="8" r="8" fill="url(#paint0_linear)"/>
<path d="M6.43587 13.2912C7.58138 12.6298 8.08555 11.3603 8.14878 10.1227C8.20903 8.94303 7.04513 8.25718 6.00638 7.69492C4.69354 6.98431 3.79987 5.59489 3.79987 4.00012C3.79987 3.39285 3.92995 2.81549 4.16323 2.29391C4.23148 2.14132 4.0599 1.97279 3.92221 2.06758C2.0367 3.36566 0.799988 5.53786 0.799988 8.00012C0.799988 10.1187 1.50299 7.03108 3.12095 12.1297C3.42194 13.0782 4.17261 13.9085 5.15393 13.7433C5.59609 13.6689 6.03981 13.5198 6.43587 13.2912Z" fill="#1F1F1F"/>
<path d="M4.20511 3.99895C4.20514 5.32169 5.05244 6.39305 6.09271 7.06665C7.08416 7.70864 8.26008 7.04359 9.26638 6.42514C10.5382 5.6435 12.1883 5.56427 13.5694 6.36165C14.0953 6.66529 14.5303 7.06662 14.8654 7.52943C14.9634 7.66484 15.1951 7.60051 15.1819 7.43387C15.0005 5.15193 13.7377 2.99481 11.6053 1.76367C9.7705 0.704375 12.093 2.85701 6.86849 1.70891C5.89656 1.49533 4.80216 1.73027 4.45454 2.66269C4.2979 3.08283 4.20516 3.54164 4.20511 3.99895Z" fill="#1F1F1F"/>
<path d="M13.3669 6.71412C12.2213 6.05278 10.8698 6.25089 9.76635 6.81498C8.71464 7.35261 8.70263 8.70351 8.73508 9.88422C8.77609 11.3765 8.01965 12.8451 6.63854 13.6425C6.11263 13.9461 5.54758 14.1222 4.97924 14.1809C4.81297 14.1981 4.75281 14.431 4.90374 14.5028C6.97066 15.4867 9.4702 15.4716 11.6026 14.2405C13.4373 13.1812 10.4119 14.1162 14.0184 10.1657C14.6893 9.43078 15.0331 8.36553 14.3994 7.59826C14.1138 7.25255 13.7629 6.94282 13.3669 6.71412Z" fill="#1F1F1F"/>
<defs>
<linearGradient id="paint0_linear" x1="2.976" y1="0.672031" x2="13.216" y2="15.264" gradientUnits="userSpaceOnUse">
<stop stop-color="#FCECB2"/>
<stop offset="0.260417" stop-color="#FF8B89"/>
<stop offset="0.520833" stop-color="#FC8ADC"/>
<stop offset="0.755208" stop-color="#7954FF"/>
<stop offset="1" stop-color="#70BCFF"/>
</linearGradient>
</defs>
</svg>
