<svg width="160" height="160" viewBox="0 0 160 160" fill="none" xmlns="http://www.w3.org/2000/svg">
<circle cx="80" cy="80" r="80" fill="url(#paint0_linear)"/>
<path d="M64.3589 132.911C75.814 126.297 80.8557 113.603 81.4879 101.226C82.0905 89.4293 70.4514 82.5708 60.0639 76.9483C46.9356 69.8421 37.9989 55.948 37.9989 40.0003C37.9989 33.9275 39.2996 28.1539 41.6324 22.9382C42.3149 21.4122 40.5991 19.727 39.2223 20.6749C20.3671 33.6556 8 55.3776 8 80.0003C8 101.186 15.03 70.3098 31.2096 121.296C34.2196 130.781 41.7263 139.084 51.5394 137.432C55.961 136.688 60.3982 135.197 64.3589 132.911Z" fill="#1F1F1F"/>
<path d="M42.0512 39.9885C42.0515 53.2159 50.5245 63.9295 60.9272 70.6655C70.8417 77.0854 82.6009 70.435 92.6639 64.2504C105.382 56.434 121.883 55.6417 135.694 63.6155C140.954 66.6519 145.303 70.6652 148.654 75.2934C149.634 76.6474 151.951 76.0041 151.819 74.3377C150.005 51.5183 137.377 29.9471 116.053 17.6358C97.7052 7.04277 120.93 28.5691 68.685 17.0881C58.9658 14.9523 48.0218 17.3018 44.5455 26.626C42.9791 30.8273 42.0517 35.4155 42.0512 39.9885Z" fill="#1F1F1F"/>
<path d="M133.669 67.1403C122.213 60.5268 108.699 62.5079 97.6636 68.1489C87.1466 73.5251 87.0265 87.0341 87.3509 98.8412C87.761 113.764 80.1966 128.45 66.3855 136.424C61.1264 139.46 55.4759 141.221 49.7925 141.808C48.1298 141.98 47.5282 144.309 49.0375 145.027C69.7068 154.866 94.7021 154.715 116.026 142.404C134.374 131.811 104.119 141.161 140.184 101.656C146.893 94.3068 150.331 83.6543 143.994 75.9817C141.139 72.5245 137.629 69.4272 133.669 67.1403Z" fill="#1F1F1F"/>
<defs>
<linearGradient id="paint0_linear" x1="29.76" y1="6.72031" x2="132.16" y2="152.64" gradientUnits="userSpaceOnUse">
<stop stop-color="#FCECB2"/>
<stop offset="0.260417" stop-color="#FF8B89"/>
<stop offset="0.520833" stop-color="#FC8ADC"/>
<stop offset="0.755208" stop-color="#7954FF"/>
<stop offset="1" stop-color="#70BCFF"/>
</linearGradient>
</defs>
</svg>
