<svg width="417" height="100" viewBox="0 0 417 100" fill="none" xmlns="http://www.w3.org/2000/svg">
<circle cx="50" cy="50" r="50" fill="#1F1F1F"/>
<path d="M40.2243 83.0696C47.3837 78.9358 50.5348 71.0017 50.9299 63.2661C51.3065 55.8935 44.0321 51.6069 37.5399 48.0928C29.3347 43.6514 23.7493 34.9676 23.7493 25.0003C23.7493 21.2048 24.5623 17.5963 26.0203 14.3365C26.4468 13.3828 25.3745 12.3295 24.5139 12.9219C12.7294 21.0349 5 34.6111 5 50.0003C5 63.2415 9.39374 43.9438 19.506 75.81C21.3872 81.7381 26.0789 86.9275 32.2121 85.8953C34.9756 85.4302 37.7489 84.4984 40.2243 83.0696Z" fill="white"/>
<path d="M26.282 24.993C26.2822 33.2601 31.5778 39.9561 38.0795 44.1661C44.2761 48.1785 51.6256 44.022 57.915 40.1566C65.8639 35.2714 76.177 34.7762 84.809 39.7598C88.0959 41.6576 90.8145 44.1659 92.9086 47.0585C93.5213 47.9047 94.9696 47.5027 94.8868 46.4612C93.7531 32.1991 85.8604 18.7171 72.533 11.0225C61.0657 4.40185 75.5812 17.8558 42.9281 10.6802C36.8536 9.3453 30.0136 10.8137 27.8409 16.6414C26.862 19.2672 26.2823 22.1348 26.282 24.993Z" fill="white"/>
<path d="M83.5429 41.9628C76.3833 37.8294 67.9366 39.0676 61.0398 42.5932C54.4666 45.9533 54.3915 54.3965 54.5943 61.7759C54.8506 71.1025 50.1229 80.2815 41.491 85.2652C38.204 87.1629 34.6724 88.2631 31.1203 88.6304C30.0811 88.7378 29.7051 90.1932 30.6485 90.6422C43.5667 96.7914 59.1888 96.6971 72.5162 89.0026C83.9835 82.3819 65.0743 88.2257 87.6151 63.5351C91.8084 58.9419 93.9567 52.2841 89.9962 47.4887C88.2116 45.3279 86.018 43.3921 83.5429 41.9628Z" fill="white"/>
<path d="M150.3 60.4002C150.3 61.5602 149.88 62.5602 149.04 63.4002C148.24 64.2002 147.26 64.6002 146.1 64.6002H129.3C128.14 64.6002 127.14 64.2002 126.3 63.4002C125.5 62.5602 125.1 61.5602 125.1 60.4002V39.4002C125.1 38.2402 125.5 37.2602 126.3 36.4602C127.14 35.6202 128.14 35.2002 129.3 35.2002H146.1C147.26 35.2002 148.24 35.6202 149.04 36.4602C149.88 37.2602 150.3 38.2402 150.3 39.4002V43.6002H145.5V39.4002H129.9V60.4002H145.5V56.2002H150.3V60.4002Z" fill="#1F1F1F"/>
<path d="M183.326 60.4002C183.326 61.5602 182.906 62.5602 182.066 63.4002C181.266 64.2002 180.286 64.6002 179.126 64.6002H166.526C165.366 64.6002 164.366 64.2002 163.526 63.4002C162.726 62.5602 162.326 61.5602 162.326 60.4002V47.8002C162.326 46.6402 162.726 45.6602 163.526 44.8602C164.366 44.0202 165.366 43.6002 166.526 43.6002H179.126C180.286 43.6002 181.266 44.0202 182.066 44.8602C182.906 45.6602 183.326 46.6402 183.326 47.8002V60.4002ZM179.126 61.0002V47.2002H166.526V61.0002H179.126Z" fill="#1F1F1F"/>
<path d="M213.04 43.6002L209.38 47.2002H199.24V52.0002H207.64C208.8 52.0002 209.78 52.4202 210.58 53.2602C211.42 54.0602 211.84 55.0402 211.84 56.2002V60.4002C211.84 61.5602 211.42 62.5602 210.58 63.4002C209.78 64.2002 208.8 64.6002 207.64 64.6002H195.04V61.0002H207.64V55.6002H199.24C198.08 55.6002 197.08 55.2002 196.24 54.4002C195.44 53.5602 195.04 52.5602 195.04 51.4002V47.8002C195.04 46.6402 195.44 45.6602 196.24 44.8602C197.08 44.0202 198.08 43.6002 199.24 43.6002H213.04Z" fill="#1F1F1F"/>
<path d="M258.919 64.6002H254.719V47.2002H243.319V64.6002H239.119V47.2002H227.719V64.6002H223.519V43.6002H227.719V46.6002L230.719 43.6002H239.119C241.559 43.6002 242.939 44.6202 243.259 46.6602L246.319 43.6002H254.719C255.879 43.6002 256.859 44.0202 257.659 44.8602C258.499 45.6602 258.919 46.6402 258.919 47.8002V64.6002Z" fill="#1F1F1F"/>
<path d="M310.847 35.2002L304.247 64.6002H296.147L290.447 43.0602H289.847L284.147 64.6002H276.047L269.447 35.2002H274.847L279.647 60.5202H280.847L287.747 35.2002H292.547L299.447 60.5202H300.647L305.447 35.2002H310.847Z" fill="#1F1F1F"/>
<path d="M341.433 64.6002H337.233V61.5402L333.633 64.6002H324.633C323.473 64.6002 322.473 64.2002 321.633 63.4002C320.833 62.5602 320.433 61.5602 320.433 60.4002V56.2002C320.433 55.0402 320.833 54.0602 321.633 53.2602C322.473 52.4202 323.473 52.0002 324.633 52.0002H336.633L333.033 55.5402H324.633V61.0002H337.233V47.2002H320.433L324.033 43.6002H337.233C338.393 43.6002 339.373 44.0202 340.173 44.8602C341.013 45.6602 341.433 46.6402 341.433 47.8002V64.6002Z" fill="#1F1F1F"/>
<path d="M371.109 43.6002L367.449 47.2002H357.309V52.0002H365.709C366.869 52.0002 367.849 52.4202 368.649 53.2602C369.489 54.0602 369.909 55.0402 369.909 56.2002V60.4002C369.909 61.5602 369.489 62.5602 368.649 63.4002C367.849 64.2002 366.869 64.6002 365.709 64.6002H353.109V61.0002H365.709V55.6002H357.309C356.149 55.6002 355.149 55.2002 354.309 54.4002C353.509 53.5602 353.109 52.5602 353.109 51.4002V47.8002C353.109 46.6402 353.509 45.6602 354.309 44.8602C355.149 44.0202 356.149 43.6002 357.309 43.6002H371.109Z" fill="#1F1F1F"/>
<path d="M416.988 64.6002H412.788V47.2002H401.388V64.6002H397.188V47.2002H385.788V64.6002H381.588V43.6002H385.788V46.6002L388.788 43.6002H397.188C399.628 43.6002 401.008 44.6202 401.328 46.6602L404.388 43.6002H412.788C413.948 43.6002 414.928 44.0202 415.728 44.8602C416.568 45.6602 416.988 46.6402 416.988 47.8002V64.6002Z" fill="#1F1F1F"/>
</svg>
